<svg width="108" height="169" viewBox="0 0 108 169" fill="none" xmlns="http://www.w3.org/2000/svg">
<rect width="108" height="169" rx="10" fill="#EAC237"/>
<path fill-rule="evenodd" clip-rule="evenodd" d="M58.845 76.4335L58.845 19.0085C58.845 13.8977 65.6072 12.0792 68.1706 16.5006L101.167 73.4126C102.219 75.2272 102.026 77.5055 100.685 79.118L67.6889 118.784C64.6968 122.381 58.845 120.265 58.845 115.586L58.845 76.4335ZM50.918 19.0314C50.918 13.919 44.1523 12.1018 41.5909 16.5262L11.2631 68.9105C9.33325 72.2438 11.7385 76.4157 15.5902 76.4157H45.918C48.6794 76.4157 50.918 74.1771 50.918 71.4157L50.918 19.0314ZM50.918 117.538C50.918 121.965 45.5893 124.208 42.4233 121.114L15.6933 94.9916C12.4877 91.8588 14.7057 86.4157 19.188 86.4157H45.918C48.6794 86.4157 50.918 88.6543 50.918 91.4157V117.538ZM21.6133 134.353L17.7461 147.185L13.9023 134.353H10L15.918 151.416H19.5859L25.5273 134.353H21.6133ZM27.6953 149.939C28.8672 151.08 30.3828 151.65 32.2422 151.65C33.2969 151.65 34.2578 151.451 35.125 151.052C35.9922 150.646 36.6797 150.084 37.1875 149.365L35.5234 147.502C34.7891 148.447 33.7695 148.92 32.4648 148.92C31.6211 148.92 30.9219 148.67 30.3672 148.17C29.8203 147.67 29.4922 147.006 29.3828 146.177H37.457V144.795C37.457 142.787 36.957 141.236 35.957 140.142C34.9648 139.048 33.6016 138.502 31.8672 138.502C30.7109 138.502 29.6797 138.775 28.7734 139.322C27.875 139.861 27.1797 140.634 26.6875 141.642C26.1953 142.642 25.9492 143.779 25.9492 145.052V145.381C25.9492 147.279 26.5312 148.798 27.6953 149.939ZM30.2148 141.923C30.6367 141.47 31.1836 141.244 31.8555 141.244C32.5742 141.244 33.1289 141.451 33.5195 141.865C33.9102 142.271 34.1133 142.849 34.1289 143.599V143.869H29.418C29.5352 143.025 29.8008 142.377 30.2148 141.923ZM45.2969 141.818C45.6484 141.818 46.0547 141.849 46.5156 141.912L46.5625 138.654C46.2344 138.552 45.8828 138.502 45.5078 138.502C44.3047 138.502 43.3633 139.084 42.6836 140.248L42.5898 138.736H39.3906V151.416H42.7773V143.119C43.1758 142.252 44.0156 141.818 45.2969 141.818ZM48.8125 140.283C47.8906 141.47 47.4297 143.037 47.4297 144.982V145.123C47.4297 147.091 47.8984 148.673 48.8359 149.869C49.7812 151.056 51.0156 151.65 52.5391 151.65C53.8125 151.65 54.8398 151.209 55.6211 150.326V151.006C55.6211 151.888 55.3711 152.568 54.8711 153.045C54.3711 153.529 53.6719 153.771 52.7734 153.771C51.5703 153.771 50.5469 153.298 49.7031 152.353L48.2031 154.416C48.6562 155.002 49.3242 155.478 50.207 155.845C51.0898 156.22 51.9961 156.408 52.9258 156.408C54.1523 156.408 55.2227 156.193 56.1367 155.763C57.0508 155.334 57.7578 154.709 58.2578 153.888C58.7656 153.068 59.0195 152.103 59.0195 150.994V138.736H55.9492L55.8086 139.931C55.0352 138.978 53.9531 138.502 52.5625 138.502C50.9922 138.502 49.7422 139.095 48.8125 140.283ZM51.5078 147.935C51.0469 147.279 50.8164 146.377 50.8164 145.228C50.8164 143.908 51.0469 142.916 51.5078 142.252C51.9766 141.588 52.6172 141.256 53.4297 141.256C54.4375 141.256 55.168 141.642 55.6211 142.416V147.748C55.1758 148.521 54.4375 148.908 53.4062 148.908C52.6016 148.908 51.9688 148.584 51.5078 147.935ZM62.9219 149.939C64.0938 151.08 65.6094 151.65 67.4688 151.65C68.5234 151.65 69.4844 151.451 70.3516 151.052C71.2188 150.646 71.9062 150.084 72.4141 149.365L70.75 147.502C70.0156 148.447 68.9961 148.92 67.6914 148.92C66.8477 148.92 66.1484 148.67 65.5938 148.17C65.0469 147.67 64.7188 147.006 64.6094 146.177H72.6836V144.795C72.6836 142.787 72.1836 141.236 71.1836 140.142C70.1914 139.048 68.8281 138.502 67.0938 138.502C65.9375 138.502 64.9062 138.775 64 139.322C63.1016 139.861 62.4062 140.634 61.9141 141.642C61.4219 142.642 61.1758 143.779 61.1758 145.052V145.381C61.1758 147.279 61.7578 148.798 62.9219 149.939ZM65.4414 141.923C65.8633 141.47 66.4102 141.244 67.082 141.244C67.8008 141.244 68.3555 141.451 68.7461 141.865C69.1367 142.271 69.3398 142.849 69.3555 143.599V143.869H64.6445C64.7617 143.025 65.0273 142.377 65.4414 141.923ZM75.332 148.439C74.9727 148.775 74.793 149.213 74.793 149.752C74.793 150.283 74.9727 150.716 75.332 151.052C75.6914 151.381 76.1484 151.545 76.7031 151.545C77.2656 151.545 77.7266 151.381 78.0859 151.052C78.4453 150.716 78.625 150.283 78.625 149.752C78.625 149.213 78.4414 148.775 78.0742 148.439C77.7148 148.103 77.2578 147.935 76.7031 147.935C76.1562 147.935 75.6992 148.103 75.332 148.439ZM85.1875 152.107V138.736H81.7891V152.131C81.7891 153.216 81.2773 153.759 80.2539 153.759C79.9492 153.759 79.5938 153.724 79.1875 153.654V156.338C79.7188 156.47 80.2773 156.537 80.8633 156.537C82.2617 156.537 83.332 156.146 84.0742 155.365C84.8164 154.591 85.1875 153.506 85.1875 152.107ZM82.0234 134.201C81.6875 134.529 81.5195 134.947 81.5195 135.455C81.5195 135.97 81.6914 136.392 82.0352 136.72C82.3867 137.048 82.8477 137.213 83.418 137.213C83.9883 137.213 84.4453 137.048 84.7891 136.72C85.1406 136.392 85.3164 135.97 85.3164 135.455C85.3164 134.947 85.1445 134.529 84.8008 134.201C84.4648 133.873 84.0039 133.709 83.418 133.709C82.832 133.709 82.3672 133.873 82.0234 134.201ZM94.082 146.939C94.4961 147.173 94.7031 147.498 94.7031 147.912C94.7031 148.31 94.5352 148.634 94.1992 148.884C93.8711 149.127 93.3828 149.248 92.7344 149.248C92.0391 149.248 91.4844 149.088 91.0703 148.767C90.6562 148.447 90.4336 147.986 90.4023 147.384H87.1914C87.1914 148.15 87.4258 148.865 87.8945 149.529C88.3633 150.185 89.0078 150.705 89.8281 151.088C90.6562 151.463 91.6016 151.65 92.6641 151.65C94.2344 151.65 95.5156 151.295 96.5078 150.584C97.5 149.865 97.9961 148.927 97.9961 147.771C97.9961 146.154 97.1016 145.017 95.3125 144.361C94.7344 144.15 94.0234 143.963 93.1797 143.798C92.3359 143.627 91.7344 143.427 91.375 143.201C91.0234 142.966 90.8477 142.662 90.8477 142.287C90.8477 141.888 91.0039 141.56 91.3164 141.302C91.6289 141.045 92.0703 140.916 92.6406 140.916C93.3047 140.916 93.793 141.076 94.1055 141.396C94.418 141.709 94.5742 142.107 94.5742 142.591H97.9609C97.9609 141.381 97.4766 140.396 96.5078 139.638C95.5469 138.881 94.2617 138.502 92.6523 138.502C91.1445 138.502 89.9219 138.881 88.9844 139.638C88.0547 140.388 87.5898 141.326 87.5898 142.451C87.5898 144.381 89.0977 145.662 92.1133 146.295C93.0195 146.482 93.6758 146.697 94.082 146.939Z" fill="white"/>
</svg>
