<svg width="108" height="169" viewBox="0 0 108 169" fill="none" xmlns="http://www.w3.org/2000/svg">
<rect width="108" height="169" rx="10" fill="white"/>
<path fill-rule="evenodd" clip-rule="evenodd" d="M56.845 76.4335L56.845 19.0085C56.845 13.8977 63.6072 12.0792 66.1706 16.5006L99.1665 73.4126C100.219 75.2272 100.026 77.5055 98.6849 79.118L65.6889 118.784C62.6968 122.381 56.845 120.265 56.845 115.586L56.845 76.4335ZM48.918 19.0314C48.918 13.919 42.1523 12.1018 39.5909 16.5262L9.26307 68.9105C7.33325 72.2438 9.73854 76.4157 13.5902 76.4157H43.918C46.6794 76.4157 48.918 74.1771 48.918 71.4157L48.918 19.0314ZM48.918 117.538C48.918 121.965 43.5893 124.208 40.4233 121.114L13.6933 94.9916C10.4877 91.8588 12.7057 86.4157 17.188 86.4157H43.918C46.6794 86.4157 48.918 88.6543 48.918 91.4157V117.538ZM19.6133 134.353L15.7461 147.185L11.9023 134.353H8L13.918 151.416H17.5859L23.5273 134.353H19.6133ZM25.6953 149.939C26.8672 151.08 28.3828 151.65 30.2422 151.65C31.2969 151.65 32.2578 151.451 33.125 151.052C33.9922 150.646 34.6797 150.084 35.1875 149.365L33.5234 147.502C32.7891 148.447 31.7695 148.92 30.4648 148.92C29.6211 148.92 28.9219 148.67 28.3672 148.17C27.8203 147.67 27.4922 147.006 27.3828 146.177H35.457V144.795C35.457 142.787 34.957 141.236 33.957 140.142C32.9648 139.048 31.6016 138.502 29.8672 138.502C28.7109 138.502 27.6797 138.775 26.7734 139.322C25.875 139.861 25.1797 140.634 24.6875 141.642C24.1953 142.642 23.9492 143.779 23.9492 145.052V145.381C23.9492 147.279 24.5312 148.798 25.6953 149.939ZM28.2148 141.923C28.6367 141.47 29.1836 141.244 29.8555 141.244C30.5742 141.244 31.1289 141.451 31.5195 141.865C31.9102 142.271 32.1133 142.849 32.1289 143.599V143.869H27.418C27.5352 143.025 27.8008 142.377 28.2148 141.923ZM43.2969 141.818C43.6484 141.818 44.0547 141.849 44.5156 141.912L44.5625 138.654C44.2344 138.552 43.8828 138.502 43.5078 138.502C42.3047 138.502 41.3633 139.084 40.6836 140.248L40.5898 138.736H37.3906V151.416H40.7773V143.119C41.1758 142.252 42.0156 141.818 43.2969 141.818ZM46.8125 140.283C45.8906 141.47 45.4297 143.037 45.4297 144.982V145.123C45.4297 147.091 45.8984 148.673 46.8359 149.869C47.7812 151.056 49.0156 151.65 50.5391 151.65C51.8125 151.65 52.8398 151.209 53.6211 150.326V151.006C53.6211 151.888 53.3711 152.568 52.8711 153.045C52.3711 153.529 51.6719 153.771 50.7734 153.771C49.5703 153.771 48.5469 153.298 47.7031 152.353L46.2031 154.416C46.6562 155.002 47.3242 155.478 48.207 155.845C49.0898 156.22 49.9961 156.408 50.9258 156.408C52.1523 156.408 53.2227 156.193 54.1367 155.763C55.0508 155.334 55.7578 154.709 56.2578 153.888C56.7656 153.068 57.0195 152.103 57.0195 150.994V138.736H53.9492L53.8086 139.931C53.0352 138.978 51.9531 138.502 50.5625 138.502C48.9922 138.502 47.7422 139.095 46.8125 140.283ZM49.5078 147.935C49.0469 147.279 48.8164 146.377 48.8164 145.228C48.8164 143.908 49.0469 142.916 49.5078 142.252C49.9766 141.588 50.6172 141.256 51.4297 141.256C52.4375 141.256 53.168 141.642 53.6211 142.416V147.748C53.1758 148.521 52.4375 148.908 51.4062 148.908C50.6016 148.908 49.9688 148.584 49.5078 147.935ZM60.9219 149.939C62.0938 151.08 63.6094 151.65 65.4688 151.65C66.5234 151.65 67.4844 151.451 68.3516 151.052C69.2188 150.646 69.9062 150.084 70.4141 149.365L68.75 147.502C68.0156 148.447 66.9961 148.92 65.6914 148.92C64.8477 148.92 64.1484 148.67 63.5938 148.17C63.0469 147.67 62.7188 147.006 62.6094 146.177H70.6836V144.795C70.6836 142.787 70.1836 141.236 69.1836 140.142C68.1914 139.048 66.8281 138.502 65.0938 138.502C63.9375 138.502 62.9062 138.775 62 139.322C61.1016 139.861 60.4062 140.634 59.9141 141.642C59.4219 142.642 59.1758 143.779 59.1758 145.052V145.381C59.1758 147.279 59.7578 148.798 60.9219 149.939ZM63.4414 141.923C63.8633 141.47 64.4102 141.244 65.082 141.244C65.8008 141.244 66.3555 141.451 66.7461 141.865C67.1367 142.271 67.3398 142.849 67.3555 143.599V143.869H62.6445C62.7617 143.025 63.0273 142.377 63.4414 141.923ZM73.332 148.439C72.9727 148.775 72.793 149.213 72.793 149.752C72.793 150.283 72.9727 150.716 73.332 151.052C73.6914 151.381 74.1484 151.545 74.7031 151.545C75.2656 151.545 75.7266 151.381 76.0859 151.052C76.4453 150.716 76.625 150.283 76.625 149.752C76.625 149.213 76.4414 148.775 76.0742 148.439C75.7148 148.103 75.2578 147.935 74.7031 147.935C74.1562 147.935 73.6992 148.103 73.332 148.439ZM83.1875 152.107V138.736H79.7891V152.131C79.7891 153.216 79.2773 153.759 78.2539 153.759C77.9492 153.759 77.5938 153.724 77.1875 153.654V156.338C77.7188 156.47 78.2773 156.537 78.8633 156.537C80.2617 156.537 81.332 156.146 82.0742 155.365C82.8164 154.591 83.1875 153.506 83.1875 152.107ZM80.0234 134.201C79.6875 134.529 79.5195 134.947 79.5195 135.455C79.5195 135.97 79.6914 136.392 80.0352 136.72C80.3867 137.048 80.8477 137.213 81.418 137.213C81.9883 137.213 82.4453 137.048 82.7891 136.72C83.1406 136.392 83.3164 135.97 83.3164 135.455C83.3164 134.947 83.1445 134.529 82.8008 134.201C82.4648 133.873 82.0039 133.709 81.418 133.709C80.832 133.709 80.3672 133.873 80.0234 134.201ZM92.082 146.939C92.4961 147.173 92.7031 147.498 92.7031 147.912C92.7031 148.31 92.5352 148.634 92.1992 148.884C91.8711 149.127 91.3828 149.248 90.7344 149.248C90.0391 149.248 89.4844 149.088 89.0703 148.767C88.6562 148.447 88.4336 147.986 88.4023 147.384H85.1914C85.1914 148.15 85.4258 148.865 85.8945 149.529C86.3633 150.185 87.0078 150.705 87.8281 151.088C88.6562 151.463 89.6016 151.65 90.6641 151.65C92.2344 151.65 93.5156 151.295 94.5078 150.584C95.5 149.865 95.9961 148.927 95.9961 147.771C95.9961 146.154 95.1016 145.017 93.3125 144.361C92.7344 144.15 92.0234 143.963 91.1797 143.798C90.3359 143.627 89.7344 143.427 89.375 143.201C89.0234 142.966 88.8477 142.662 88.8477 142.287C88.8477 141.888 89.0039 141.56 89.3164 141.302C89.6289 141.045 90.0703 140.916 90.6406 140.916C91.3047 140.916 91.793 141.076 92.1055 141.396C92.418 141.709 92.5742 142.107 92.5742 142.591H95.9609C95.9609 141.381 95.4766 140.396 94.5078 139.638C93.5469 138.881 92.2617 138.502 90.6523 138.502C89.1445 138.502 87.9219 138.881 86.9844 139.638C86.0547 140.388 85.5898 141.326 85.5898 142.451C85.5898 144.381 87.0977 145.662 90.1133 146.295C91.0195 146.482 91.6758 146.697 92.082 146.939Z" fill="#EAC237"/>
</svg>
