<svg width="95" height="159" viewBox="0 0 95 159" fill="none" xmlns="http://www.w3.org/2000/svg">
<path d="M34.6729 16.1105C37.2344 11.6861 44 13.5033 44 18.6157L44 71C44 73.7614 41.7614 76 39 76H8.67224C4.82058 76 2.41528 71.8281 4.34511 68.4948L34.6729 16.1105Z" fill="#EAC237"/>
<path d="M35.5053 120.698C38.6714 123.792 44 121.549 44 117.122V91C44 88.2386 41.7614 86 39 86H12.27C7.78776 86 5.5697 91.4431 8.77538 94.5759L35.5053 120.698Z" fill="#EAC237"/>
<path fill-rule="evenodd" clip-rule="evenodd" d="M51.927 76.0179L51.927 18.5928C51.927 13.4821 58.6892 11.6636 61.2526 16.0849L94.2486 72.997C95.3006 74.8115 95.1083 77.0898 93.7669 78.7024L60.7709 118.368C57.7789 121.965 51.927 119.849 51.927 115.171L51.927 76.0179Z" fill="#EAC237"/>
<path d="M10.8281 146.77L14.6953 133.938H18.6094L12.668 151H9L3.08203 133.938H6.98438L10.8281 146.77ZM25.3242 151.234C23.4648 151.234 21.9492 150.664 20.7773 149.523C19.6133 148.383 19.0312 146.863 19.0312 144.965V144.637C19.0312 143.363 19.2773 142.227 19.7695 141.227C20.2617 140.219 20.957 139.445 21.8555 138.906C22.7617 138.359 23.793 138.086 24.9492 138.086C26.6836 138.086 28.0469 138.633 29.0391 139.727C30.0391 140.82 30.5391 142.371 30.5391 144.379V145.762H22.4648C22.5742 146.59 22.9023 147.254 23.4492 147.754C24.0039 148.254 24.7031 148.504 25.5469 148.504C26.8516 148.504 27.8711 148.031 28.6055 147.086L30.2695 148.949C29.7617 149.668 29.0742 150.23 28.207 150.637C27.3398 151.035 26.3789 151.234 25.3242 151.234ZM24.9375 140.828C24.2656 140.828 23.7188 141.055 23.2969 141.508C22.8828 141.961 22.6172 142.609 22.5 143.453H27.2109V143.184C27.1953 142.434 26.9922 141.855 26.6016 141.449C26.2109 141.035 25.6562 140.828 24.9375 140.828ZM39.5977 141.496C39.1367 141.434 38.7305 141.402 38.3789 141.402C37.0977 141.402 36.2578 141.836 35.8594 142.703V151H32.4727V138.32H35.6719L35.7656 139.832C36.4453 138.668 37.3867 138.086 38.5898 138.086C38.9648 138.086 39.3164 138.137 39.6445 138.238L39.5977 141.496ZM40.5117 144.566C40.5117 142.621 40.9727 141.055 41.8945 139.867C42.8242 138.68 44.0742 138.086 45.6445 138.086C47.0352 138.086 48.1172 138.562 48.8906 139.516L49.0312 138.32H52.1016V150.578C52.1016 151.688 51.8477 152.652 51.3398 153.473C50.8398 154.293 50.1328 154.918 49.2188 155.348C48.3047 155.777 47.2344 155.992 46.0078 155.992C45.0781 155.992 44.1719 155.805 43.2891 155.43C42.4062 155.062 41.7383 154.586 41.2852 154L42.7852 151.938C43.6289 152.883 44.6523 153.355 45.8555 153.355C46.7539 153.355 47.4531 153.113 47.9531 152.629C48.4531 152.152 48.7031 151.473 48.7031 150.59V149.91C47.9219 150.793 46.8945 151.234 45.6211 151.234C44.0977 151.234 42.8633 150.641 41.918 149.453C40.9805 148.258 40.5117 146.676 40.5117 144.707V144.566ZM43.8984 144.812C43.8984 145.961 44.1289 146.863 44.5898 147.52C45.0508 148.168 45.6836 148.492 46.4883 148.492C47.5195 148.492 48.2578 148.105 48.7031 147.332V142C48.25 141.227 47.5195 140.84 46.5117 140.84C45.6992 140.84 45.0586 141.172 44.5898 141.836C44.1289 142.5 43.8984 143.492 43.8984 144.812ZM60.5508 151.234C58.6914 151.234 57.1758 150.664 56.0039 149.523C54.8398 148.383 54.2578 146.863 54.2578 144.965V144.637C54.2578 143.363 54.5039 142.227 54.9961 141.227C55.4883 140.219 56.1836 139.445 57.082 138.906C57.9883 138.359 59.0195 138.086 60.1758 138.086C61.9102 138.086 63.2734 138.633 64.2656 139.727C65.2656 140.82 65.7656 142.371 65.7656 144.379V145.762H57.6914C57.8008 146.59 58.1289 147.254 58.6758 147.754C59.2305 148.254 59.9297 148.504 60.7734 148.504C62.0781 148.504 63.0977 148.031 63.832 147.086L65.4961 148.949C64.9883 149.668 64.3008 150.23 63.4336 150.637C62.5664 151.035 61.6055 151.234 60.5508 151.234ZM60.1641 140.828C59.4922 140.828 58.9453 141.055 58.5234 141.508C58.1094 141.961 57.8438 142.609 57.7266 143.453H62.4375V143.184C62.4219 142.434 62.2188 141.855 61.8281 141.449C61.4375 141.035 60.8828 140.828 60.1641 140.828ZM67.875 149.336C67.875 148.797 68.0547 148.359 68.4141 148.023C68.7812 147.688 69.2383 147.52 69.7852 147.52C70.3398 147.52 70.7969 147.688 71.1562 148.023C71.5234 148.359 71.707 148.797 71.707 149.336C71.707 149.867 71.5273 150.301 71.168 150.637C70.8086 150.965 70.3477 151.129 69.7852 151.129C69.2305 151.129 68.7734 150.965 68.4141 150.637C68.0547 150.301 67.875 149.867 67.875 149.336ZM78.2695 138.32V151.691C78.2695 153.09 77.8984 154.176 77.1562 154.949C76.4141 155.73 75.3438 156.121 73.9453 156.121C73.3594 156.121 72.8008 156.055 72.2695 155.922V153.238C72.6758 153.309 73.0312 153.344 73.3359 153.344C74.3594 153.344 74.8711 152.801 74.8711 151.715V138.32H78.2695ZM74.6016 135.039C74.6016 134.531 74.7695 134.113 75.1055 133.785C75.4492 133.457 75.9141 133.293 76.5 133.293C77.0859 133.293 77.5469 133.457 77.8828 133.785C78.2266 134.113 78.3984 134.531 78.3984 135.039C78.3984 135.555 78.2227 135.977 77.8711 136.305C77.5273 136.633 77.0703 136.797 76.5 136.797C75.9297 136.797 75.4688 136.633 75.1172 136.305C74.7734 135.977 74.6016 135.555 74.6016 135.039ZM87.7852 147.496C87.7852 147.082 87.5781 146.758 87.1641 146.523C86.7578 146.281 86.1016 146.066 85.1953 145.879C82.1797 145.246 80.6719 143.965 80.6719 142.035C80.6719 140.91 81.1367 139.973 82.0664 139.223C83.0039 138.465 84.2266 138.086 85.7344 138.086C87.3438 138.086 88.6289 138.465 89.5898 139.223C90.5586 139.98 91.043 140.965 91.043 142.176H87.6562C87.6562 141.691 87.5 141.293 87.1875 140.98C86.875 140.66 86.3867 140.5 85.7227 140.5C85.1523 140.5 84.7109 140.629 84.3984 140.887C84.0859 141.145 83.9297 141.473 83.9297 141.871C83.9297 142.246 84.1055 142.551 84.457 142.785C84.8164 143.012 85.418 143.211 86.2617 143.383C87.1055 143.547 87.8164 143.734 88.3945 143.945C90.1836 144.602 91.0781 145.738 91.0781 147.355C91.0781 148.512 90.582 149.449 89.5898 150.168C88.5977 150.879 87.3164 151.234 85.7461 151.234C84.6836 151.234 83.7383 151.047 82.9102 150.672C82.0898 150.289 81.4453 149.77 80.9766 149.113C80.5078 148.449 80.2734 147.734 80.2734 146.969H83.4844C83.5156 147.57 83.7383 148.031 84.1523 148.352C84.5664 148.672 85.1211 148.832 85.8164 148.832C86.4648 148.832 86.9531 148.711 87.2812 148.469C87.6172 148.219 87.7852 147.895 87.7852 147.496Z" fill="#EAC237"/>
</svg>
